<svg xmlns="http://www.w3.org/2000/svg" width="1300" height="820" viewBox="0 0 1300 820">
<rect width="100%" height="100%" fill="#f7f3ec"/>
<rect x="140" y="90" width="1000" height="620" fill="#fffdf9" stroke="#d8c8b0"/>
<rect x="140" y="549.655172413793" width="1000" height="160.34482758620697" fill="#f7d9c8" opacity="0.45"/>
<rect x="140" y="335.8620689655172" width="1000" height="213.79310344827582" fill="#cfe8dc" opacity="0.55"/>
<rect x="140" y="90.0" width="1000" height="245.8620689655172" fill="#d8efcf" opacity="0.45"/>
<line x1="140" y1="838.3" x2="1140" y2="838.3" stroke="#e8dfd2" stroke-width="1"/>
<text x="126" y="843.3" text-anchor="end" font-size="18" fill="#5b5248">-0.8</text>
<line x1="140" y1="752.8" x2="1140" y2="752.8" stroke="#e8dfd2" stroke-width="1"/>
<text x="126" y="757.8" text-anchor="end" font-size="18" fill="#5b5248">0.0</text>
<line x1="140" y1="667.2" x2="1140" y2="667.2" stroke="#e8dfd2" stroke-width="1"/>
<text x="126" y="672.2" text-anchor="end" font-size="18" fill="#5b5248">0.8</text>
<line x1="140" y1="581.7" x2="1140" y2="581.7" stroke="#e8dfd2" stroke-width="1"/>
<text x="126" y="586.7" text-anchor="end" font-size="18" fill="#5b5248">1.6</text>
<line x1="140" y1="496.2" x2="1140" y2="496.2" stroke="#e8dfd2" stroke-width="1"/>
<text x="126" y="501.2" text-anchor="end" font-size="18" fill="#5b5248">2.4</text>
<line x1="140" y1="410.7" x2="1140" y2="410.7" stroke="#e8dfd2" stroke-width="1"/>
<text x="126" y="415.7" text-anchor="end" font-size="18" fill="#5b5248">3.2</text>
<line x1="140" y1="325.2" x2="1140" y2="325.2" stroke="#e8dfd2" stroke-width="1"/>
<text x="126" y="330.2" text-anchor="end" font-size="18" fill="#5b5248">4.0</text>
<line x1="140" y1="239.7" x2="1140" y2="239.7" stroke="#e8dfd2" stroke-width="1"/>
<text x="126" y="244.7" text-anchor="end" font-size="18" fill="#5b5248">4.8</text>
<line x1="140" y1="154.1" x2="1140" y2="154.1" stroke="#e8dfd2" stroke-width="1"/>
<text x="126" y="159.1" text-anchor="end" font-size="18" fill="#5b5248">5.6</text>
<line x1="140" y1="90" x2="140" y2="710" stroke="#8e7b61" stroke-width="2"/>
<line x1="140" y1="710" x2="1140" y2="710" stroke="#8e7b61" stroke-width="2"/>
<line x1="640.0" y1="667.2" x2="640.0" y2="154.1" stroke="#6d7a78" stroke-width="3"/>
<line x1="602.0" y1="667.2" x2="678.0" y2="667.2" stroke="#6d7a78" stroke-width="3"/>
<line x1="602.0" y1="154.1" x2="678.0" y2="154.1" stroke="#6d7a78" stroke-width="3"/>
<rect x="555.0" y="335.9" width="170" height="213.8" fill="#0f6f6424" stroke="#0f6f64" stroke-width="3"/>
<line x1="555.0" y1="442.8" x2="725.0" y2="442.8" stroke="#213a36" stroke-width="4"/>
<line x1="140" y1="549.7" x2="1140" y2="549.7" stroke="#8b8174" stroke-dasharray="7 5" stroke-width="1.5"/>
<text x="1158" y="555.7" font-size="18" fill="#564f47">Q1 1.90</text>
<line x1="140" y1="442.8" x2="1140" y2="442.8" stroke="#8b8174" stroke-dasharray="7 5" stroke-width="1.5"/>
<text x="1158" y="448.8" font-size="18" fill="#564f47">Mediaan 2.90</text>
<line x1="140" y1="335.9" x2="1140" y2="335.9" stroke="#8b8174" stroke-dasharray="7 5" stroke-width="1.5"/>
<text x="1158" y="341.9" font-size="18" fill="#564f47">Q3 3.90</text>
<text x="739.0" y="323.9" font-size="19" fill="#0d6d63" font-weight="700">Box (Q1-Q3)</text>
<circle cx="420.4" cy="667.2" r="9" fill="#b65d35" stroke="#fff7ed" stroke-width="2"/>
<circle cx="483.4" cy="635.2" r="9" fill="#b65d35" stroke="#fff7ed" stroke-width="2"/>
<circle cx="756.1" cy="603.1" r="9" fill="#b65d35" stroke="#fff7ed" stroke-width="2"/>
<circle cx="797.9" cy="560.3" r="9" fill="#b65d35" stroke="#fff7ed" stroke-width="2"/>
<circle cx="630.1" cy="539.0" r="9" fill="#0f6f64" stroke="#fff7ed" stroke-width="2"/>
<circle cx="693.1" cy="506.9" r="9" fill="#0f6f64" stroke="#fff7ed" stroke-width="2"/>
<circle cx="525.3" cy="474.8" r="9" fill="#0f6f64" stroke="#fff7ed" stroke-width="2"/>
<circle cx="609.4" cy="442.8" r="9" fill="#0f6f64" stroke="#fff7ed" stroke-width="2"/>
<circle cx="441.6" cy="421.4" r="9" fill="#0f6f64" stroke="#fff7ed" stroke-width="2"/>
<circle cx="534.1" cy="400.0" r="9" fill="#0f6f64" stroke="#fff7ed" stroke-width="2"/>
<circle cx="701.9" cy="357.2" r="9" fill="#0f6f64" stroke="#fff7ed" stroke-width="2"/>
<circle cx="638.9" cy="314.5" r="9" fill="#2f7a4a" stroke="#fff7ed" stroke-width="2"/>
<circle cx="806.7" cy="282.4" r="9" fill="#2f7a4a" stroke="#fff7ed" stroke-width="2"/>
<circle cx="743.7" cy="239.7" r="9" fill="#2f7a4a" stroke="#fff7ed" stroke-width="2"/>
<circle cx="471.1" cy="154.1" r="9" fill="#2f7a4a" stroke="#fff7ed" stroke-width="2"/>
<text x="60" y="58" font-size="42" fill="#1f1d1a" font-weight="700">Preview: Beeswarm + Boxplot overlay</text>
<text x="60" y="798" font-size="20" fill="#3f3832">Onder Q1 = verzwakkend · Q1-Q3 = kern · Boven Q3 = sterk versterkend · Ring = outlier</text>
<text x="36" y="420" transform="rotate(-90 36 420)" font-size="22" fill="#2f2d2b">Bijdrage-score</text>
</svg>